<?xml version="1.0" encoding="utf-8"?>
<!-- Generator: Adobe Illustrator 19.2.1, SVG Export Plug-In . SVG Version: 6.00 Build 0)  -->
<svg version="1.1" id="Layer_1" xmlns="http://www.w3.org/2000/svg" xmlns:xlink="http://www.w3.org/1999/xlink" x="0px" y="0px"
	 viewBox="0 0 100 100" style="enable-background:new 0 0 100 100;" xml:space="preserve">
<style type="text/css">
	.st0{fill:#FFFFFF;}
</style>
<g>
	<path d="M0,90c0,5.5,4.5,10,10,10h80c5.5,0,10-4.5,10-10V10c0-5.5-4.5-10-10-10H10C4.5,0,0,4.5,0,10V90z"/>
</g>
<path class="st0" d="M14.8,20.8c0-0.5,0.1-1.1,0.4-1.5c0.3-0.5,0.7-0.9,1-1.2c0.3-0.3,0.9-0.7,1.8-1.2c0.8-0.4,1.5-0.7,2-1
	c0.5-0.2,1.3-0.6,2.5-1c1.1-0.5,2-0.8,2.6-1.1c2.7-1.1,5.1-1.5,7.3-1.2c2.1,0.3,3.5,1.2,4,2.6c1.2,3.3,3.8,11.3,7.7,24
	s6.8,21.7,8.7,27.1c13.4-4.4,21.5-7,24.4-7.9c0.8-0.3,1.7-0.4,2.8-0.3c1.1,0.1,1.9,0.7,2.4,1.7c1.1,2.3,2,4.8,2.4,7.4s0.5,4.4,0,5.6
	c-0.9,0.7-2.4,1.5-4.5,2.4c-2,0.8-3.9,1.6-5.7,2.2c-1.7,0.6-4,1.3-6.7,2.2c-2.7,0.8-4.6,1.4-5.5,1.7c-0.5,0.1-1.4,0.5-2.8,1
	c-1.4,0.5-2.7,1-4,1.4C54.5,84,53,84.5,51.4,85c-1.6,0.5-3.2,1-4.6,1.3c-1.4,0.3-2.7,0.6-4,0.9c-1.3,0.2-2.4,0.3-3.3,0.3
	c-0.9,0-1.6-0.3-1.9-0.7c-0.9-0.9-1.7-2.2-2.4-3.9c-0.7-1.7-1.4-3.9-2.2-6.5c-0.7-2.6-1.2-4.3-1.4-4.9c-2.1-6.2-4.9-14.7-8.5-25.4
	s-6.1-18.5-7.8-23.4C15,22,14.8,21.4,14.8,20.8L14.8,20.8z"/>
</svg>
