<?xml version="1.0" encoding="utf-8"?>
<!-- Generator: Adobe Illustrator 19.2.1, SVG Export Plug-In . SVG Version: 6.00 Build 0)  -->
<svg version="1.1" id="Layer_1" xmlns="http://www.w3.org/2000/svg" xmlns:xlink="http://www.w3.org/1999/xlink" x="0px" y="0px"
	 viewBox="0 0 100 71" style="enable-background:new 0 0 100 71;" xml:space="preserve">
<g>
	<path d="M50,0c6.2,0,12.3,0.1,18.1,0.3s10.1,0.3,12.8,0.5L85,1c0,0,0.4,0,0.9,0.1c0.6,0.1,1,0.1,1.3,0.2s0.7,0.1,1.3,0.3
		s1.1,0.3,1.6,0.4c0.4,0.2,1,0.4,1.6,0.7s1.2,0.7,1.7,1.1C94,4.2,94.5,4.7,95,5.2c0.2,0.2,0.5,0.6,0.9,1c0.4,0.5,0.9,1.6,1.6,3.3
		s1.2,3.6,1.5,5.6c0.3,2.4,0.5,4.9,0.7,7.6s0.3,4.8,0.3,6.3v2.2v7.6c0,5.4-0.3,10.8-1,16.2c-0.3,2-0.7,3.9-1.4,5.6
		c-0.7,1.7-1.3,2.8-1.8,3.4L95,65.1c-0.5,0.6-1.1,1.1-1.6,1.5c-0.6,0.4-1.1,0.8-1.7,1.1c-0.6,0.3-1.1,0.5-1.6,0.7
		c-0.4,0.2-1,0.3-1.6,0.4s-1.1,0.2-1.3,0.3c-0.3,0.1-0.7,0.1-1.3,0.2c-0.6,0.1-0.9,0.1-0.9,0.1c-9.3,0.7-21,1.1-35,1.1
		c-7.7-0.1-14.4-0.2-20.1-0.4c-5.7-0.2-9.4-0.3-11.2-0.4L16,69.3l-2-0.2c-1.3-0.2-2.4-0.4-3-0.6c-0.7-0.2-1.6-0.6-2.8-1.2
		C6.9,66.8,5.9,66,5,65.1c-0.2-0.2-0.5-0.6-0.9-1c-0.4-0.5-0.9-1.6-1.6-3.3S1.3,57.2,1,55.2c-0.3-2.4-0.5-4.9-0.7-7.6
		C0.1,44.8,0,42.7,0,41.2V39v-7.6C0,26,0.3,20.6,1,15.2c0.3-2,0.7-3.9,1.4-5.6C3.1,8,3.7,6.8,4.2,6.2l0.8-1c0.5-0.5,1-1,1.6-1.4
		C7.1,3.3,7.7,3,8.3,2.7C8.9,2.4,9.4,2.1,9.9,2c0.4-0.2,1-0.3,1.6-0.4s1.1-0.2,1.3-0.3c0.3-0.1,0.7-0.1,1.3-0.2C14.7,1,15,1,15,1
		C24.4,0.3,36,0,50,0z M39.7,48.1l27-13.9L39.7,20V48.1z"/>
</g>
</svg>
