<svg id="Layer_1" data-name="Layer 1" xmlns="http://www.w3.org/2000/svg" viewBox="0 0 300 80"><defs><style>.cls-1,.cls-2{fill:#fff;}.cls-1{opacity:0.7;}</style></defs><title>wpcampus-logo-tagline-info</title><path class="cls-1" d="M36.6,0.48l-7.53,31.3H25.14L18.31,7.5,12,31.78h-4L0,0.48H4.07l6.27,25.36L17,0.48h3.19l7.16,25.36L33.16,0.48H36.6Z"/><path class="cls-1" d="M51.17,31.78H47.25V0.48h11.1q5.2,0,7.68,2.83A9.53,9.53,0,0,1,68.5,9.77a8.94,8.94,0,0,1-2.69,6.67,9.65,9.65,0,0,1-7,2.64H51.17v12.7Zm0-16h7.2a6.11,6.11,0,0,0,4.47-1.66,5.87,5.87,0,0,0,1.7-4.39A6.38,6.38,0,0,0,63,5.59a5.35,5.35,0,0,0-4.38-1.83H51.17V15.82Z"/><path class="cls-2" d="M96.15,19.83l8.78,0.53a12.82,12.82,0,0,1-4.25,8.83,13.36,13.36,0,0,1-8.93,3.07A13.39,13.39,0,0,1,81.45,28q-3.92-4.22-3.92-11.65T81.25,4.52Q85,0,91.61,0q6.21,0,9.55,3.44a14.19,14.19,0,0,1,3.77,9.12L96,13a6.91,6.91,0,0,0-1.2-4.54,3.64,3.64,0,0,0-2.83-1.4q-4.54,0-4.54,9.12,0,5.11,1.18,6.95A3.73,3.73,0,0,0,91.89,25Q95.69,25,96.15,19.83Z"/><path class="cls-2" d="M133,31.78l-1.77-6.17h-8.38L121,31.78h-7.8l9.66-31.3H133l9.82,31.3H133Zm-8.52-13h5.06L127,9.7Z"/><path class="cls-2" d="M186.32,0.48v31.3H177.4V9.4l-5.79,22.38h-6.1l-6-22.38V31.78h-7.2V0.48h12.55l4.54,16.62,4.33-16.62h12.6Z"/><path class="cls-2" d="M208.32,20.4V31.78h-9.74V0.48h13.37a19.61,19.61,0,0,1,7.6,1.15,9.24,9.24,0,0,1,4.13,3.51,9.56,9.56,0,0,1,1.52,5.3,9.17,9.17,0,0,1-3.12,7.22,12.12,12.12,0,0,1-8.32,2.75h-5.43Zm-0.14-6.72h3.21q4.24,0,4.24-3.12,0-2.93-3.92-2.93h-3.53v6.05Z"/><path class="cls-2" d="M261.54,0.48V21.21q0,5.89-3.5,8.47a15,15,0,0,1-9.11,2.58q-5.92,0-9.5-2.48t-3.59-8.07V0.48h9.77V20.59a4.74,4.74,0,0,0,.95,3.28,3.94,3.94,0,0,0,3,1,5,5,0,0,0,2.85-.75,2.88,2.88,0,0,0,1.33-1.69A19.74,19.74,0,0,0,254,18.8V0.48h7.57Z"/><path class="cls-2" d="M271.91,22.72l8.92-1.6q1.12,3.78,5.78,3.78,3.62,0,3.62-1.93a1.79,1.79,0,0,0-.84-1.57,9,9,0,0,0-3-1q-8.23-1.58-10.57-4.12a8.56,8.56,0,0,1-2.34-6,9.37,9.37,0,0,1,3.36-7.36Q280.21,0,286.52,0q9.56,0,12.63,7.68l-8,2.41q-1.24-3.14-5-3.14Q283,6.95,283,8.9a1.54,1.54,0,0,0,.71,1.35,8.69,8.69,0,0,0,2.75.92,58.19,58.19,0,0,1,8,2.1,8.6,8.6,0,0,1,3.94,3.13A8.74,8.74,0,0,1,300,21.61a9.25,9.25,0,0,1-3.85,7.7Q292.3,32.26,286,32.26,274.6,32.26,271.91,22.72Z"/><path class="cls-2" d="M9.22,51.87H8.15L6.28,45.65q-0.13-.41-0.3-1a6,6,0,0,1-.17-0.76,14.49,14.49,0,0,1-.45,1.84L3.54,51.87H2.47L0,42.57H1.14l1.47,5.74a21.37,21.37,0,0,1,.45,2.19,15.78,15.78,0,0,1,.51-2.28l1.67-5.65H6.38l1.75,5.7a17.35,17.35,0,0,1,.52,2.23,19,19,0,0,1,.46-2.2l1.46-5.73h1.14Z"/><path class="cls-2" d="M20.35,51.87H19.27V47.5h-4.9v4.38H13.29v-9.3h1.08v4h4.9v-4h1.08v9.3Z"/><path class="cls-2" d="M28.22,51.87H23v-9.3h5.18v1h-4.1v3H28v1H24.12v3.42h4.1v1Z"/><path class="cls-2" d="M31.49,48v3.87H30.41v-9.3H33a4,4,0,0,1,2.53.66,2.38,2.38,0,0,1,.82,2,2.47,2.47,0,0,1-1.87,2.49L37,51.87H35.68L33.43,48H31.49Zm0-.93H33a2.56,2.56,0,0,0,1.68-.45,1.69,1.69,0,0,0,.53-1.36,1.55,1.55,0,0,0-.54-1.33,3,3,0,0,0-1.75-.41H31.49v3.56Z"/><path class="cls-2" d="M43.77,51.87H38.59v-9.3h5.18v1h-4.1v3h3.85v1H39.67v3.42h4.1v1Z"/><path class="cls-2" d="M57.59,51.87H56.52l-1.88-6.23q-0.13-.41-0.3-1a6,6,0,0,1-.17-0.76,14.49,14.49,0,0,1-.45,1.84l-1.82,6.19H50.85l-2.47-9.3h1.14L51,48.32a21.37,21.37,0,0,1,.45,2.19,15.78,15.78,0,0,1,.51-2.28l1.67-5.65h1.14l1.75,5.7A17.35,17.35,0,0,1,57,50.51a19,19,0,0,1,.46-2.2l1.46-5.73h1.14Z"/><path class="cls-2" d="M69.74,47.21a5.12,5.12,0,0,1-1.13,3.51A4,4,0,0,1,65.47,52a4,4,0,0,1-3.17-1.26,5.16,5.16,0,0,1-1.12-3.55,5.1,5.1,0,0,1,1.12-3.52,4,4,0,0,1,3.18-1.25,4,4,0,0,1,3.13,1.27A5.11,5.11,0,0,1,69.74,47.21Zm-7.41,0a4.41,4.41,0,0,0,.8,2.87,3.29,3.29,0,0,0,4.67,0,4.48,4.48,0,0,0,.79-2.87,4.44,4.44,0,0,0-.79-2.85,2.82,2.82,0,0,0-2.32-1,2.87,2.87,0,0,0-2.35,1A4.37,4.37,0,0,0,62.33,47.21Z"/><path class="cls-2" d="M73,48v3.87H71.94v-9.3h2.55a4,4,0,0,1,2.53.66,2.38,2.38,0,0,1,.82,2A2.47,2.47,0,0,1,76,47.69l2.52,4.18H77.21L75,48H73Zm0-.93H74.5a2.56,2.56,0,0,0,1.68-.45,1.69,1.69,0,0,0,.53-1.36,1.55,1.55,0,0,0-.54-1.33,3,3,0,0,0-1.75-.41H73v3.56Z"/><path class="cls-2" d="M87.54,47.13a4.69,4.69,0,0,1-1.25,3.52,4.94,4.94,0,0,1-3.6,1.22H80.12v-9.3H83A4.17,4.17,0,0,1,87.54,47.13Zm-1.14,0a3.74,3.74,0,0,0-.91-2.74,3.66,3.66,0,0,0-2.71-.92H81.2v7.43h1.32a4,4,0,0,0,2.91-1A3.76,3.76,0,0,0,86.4,47.17Z"/><path class="cls-2" d="M95.64,45.28a2.6,2.6,0,0,1-1,2.17,4.37,4.37,0,0,1-2.76.76H90.83v3.66H89.75v-9.3h2.41Q95.64,42.57,95.64,45.28Zm-4.81,2h1a3.62,3.62,0,0,0,2.08-.46,1.71,1.71,0,0,0,.64-1.49,1.6,1.6,0,0,0-.6-1.37A3.16,3.16,0,0,0,92,43.51H90.83v3.78Z"/><path class="cls-2" d="M98.8,48v3.87H97.72v-9.3h2.55a4,4,0,0,1,2.53.66,2.38,2.38,0,0,1,.82,2,2.47,2.47,0,0,1-1.87,2.49l2.52,4.18H103L100.74,48H98.8Zm0-.93h1.48a2.56,2.56,0,0,0,1.68-.45,1.69,1.69,0,0,0,.53-1.36,1.55,1.55,0,0,0-.54-1.33,3,3,0,0,0-1.75-.41H98.8v3.56Z"/><path class="cls-2" d="M111.08,51.87H105.9v-9.3h5.18v1H107v3h3.85v1H107v3.42h4.1v1Z"/><path class="cls-2" d="M118.52,49.4a2.28,2.28,0,0,1-.89,1.91,3.86,3.86,0,0,1-2.42.69,6.05,6.05,0,0,1-2.54-.43v-1a6.68,6.68,0,0,0,1.25.38,6.56,6.56,0,0,0,1.34.14,2.7,2.7,0,0,0,1.63-.41,1.35,1.35,0,0,0,.55-1.14,1.47,1.47,0,0,0-.19-0.79,1.8,1.8,0,0,0-.65-0.57,9.06,9.06,0,0,0-1.38-.59,4.42,4.42,0,0,1-1.85-1.1,2.43,2.43,0,0,1-.56-1.66,2.06,2.06,0,0,1,.81-1.71,3.36,3.36,0,0,1,2.14-.64,6.3,6.3,0,0,1,2.55.51l-0.34.94a5.77,5.77,0,0,0-2.24-.48,2.17,2.17,0,0,0-1.34.37,1.22,1.22,0,0,0-.48,1,1.57,1.57,0,0,0,.18.79,1.67,1.67,0,0,0,.6.57,7.45,7.45,0,0,0,1.29.57,5.12,5.12,0,0,1,2,1.12A2.2,2.2,0,0,1,118.52,49.4Z"/><path class="cls-2" d="M125.8,49.4a2.28,2.28,0,0,1-.89,1.91,3.86,3.86,0,0,1-2.42.69,6.05,6.05,0,0,1-2.54-.43v-1a6.68,6.68,0,0,0,1.25.38,6.56,6.56,0,0,0,1.34.14,2.7,2.7,0,0,0,1.63-.41,1.35,1.35,0,0,0,.55-1.14,1.47,1.47,0,0,0-.19-0.79,1.8,1.8,0,0,0-.65-0.57,9.06,9.06,0,0,0-1.38-.59,4.42,4.42,0,0,1-1.85-1.1,2.43,2.43,0,0,1-.56-1.66,2.06,2.06,0,0,1,.81-1.71,3.36,3.36,0,0,1,2.14-.64,6.3,6.3,0,0,1,2.55.51l-0.34.94a5.77,5.77,0,0,0-2.24-.48,2.17,2.17,0,0,0-1.34.37,1.22,1.22,0,0,0-.48,1,1.57,1.57,0,0,0,.18.79,1.67,1.67,0,0,0,.6.57,7.45,7.45,0,0,0,1.29.57,5.12,5.12,0,0,1,2,1.12A2.2,2.2,0,0,1,125.8,49.4Z"/><path class="cls-2" d="M135.46,51.87l-3.15-8.24h-0.05q0.09,1,.09,2.33v5.91h-1v-9.3H133l2.94,7.67H136l3-7.67h1.62v9.3h-1.08v-6q0-1,.09-2.24h-0.05l-3.18,8.23h-0.87Z"/><path class="cls-2" d="M148.42,51.87h-5.18v-9.3h5.18v1h-4.1v3h3.85v1h-3.85v3.42h4.1v1Z"/><path class="cls-2" d="M155.79,51.87h-5.18v-9.3h5.18v1h-4.1v3h3.85v1h-3.85v3.42h4.1v1Z"/><path class="cls-2" d="M160.85,51.87h-1.08V43.54h-2.94v-1h7v1h-2.94v8.34Z"/><path class="cls-2" d="M170.57,49.4a2.28,2.28,0,0,1-.89,1.91,3.86,3.86,0,0,1-2.42.69,6.05,6.05,0,0,1-2.54-.43v-1a6.68,6.68,0,0,0,1.25.38,6.56,6.56,0,0,0,1.34.14,2.7,2.7,0,0,0,1.63-.41,1.35,1.35,0,0,0,.55-1.14,1.47,1.47,0,0,0-.19-0.79,1.8,1.8,0,0,0-.65-0.57,9.06,9.06,0,0,0-1.38-.59,4.42,4.42,0,0,1-1.85-1.1,2.43,2.43,0,0,1-.56-1.66,2.06,2.06,0,0,1,.81-1.71,3.36,3.36,0,0,1,2.14-.64,6.3,6.3,0,0,1,2.55.51l-0.34.94a5.77,5.77,0,0,0-2.24-.48,2.17,2.17,0,0,0-1.34.37,1.22,1.22,0,0,0-.48,1,1.57,1.57,0,0,0,.18.79,1.67,1.67,0,0,0,.6.57,7.45,7.45,0,0,0,1.29.57,5.12,5.12,0,0,1,2,1.12A2.2,2.2,0,0,1,170.57,49.4Z"/><path class="cls-2" d="M183.17,51.87h-1.08V47.5h-4.9v4.38h-1.08v-9.3h1.08v4h4.9v-4h1.08v9.3Z"/><path class="cls-2" d="M185.85,51.87v-9.3h1.08v9.3h-1.08Z"/><path class="cls-2" d="M193.7,47h3.16v4.52a10.16,10.16,0,0,1-1.5.36,11.44,11.44,0,0,1-1.77.12,4.29,4.29,0,0,1-3.29-1.26,5,5,0,0,1-1.18-3.52,5.32,5.32,0,0,1,.58-2.54A3.94,3.94,0,0,1,191.39,43a5.43,5.43,0,0,1,2.56-.58,7,7,0,0,1,2.77.55l-0.42,1a6.19,6.19,0,0,0-2.42-.53,3.47,3.47,0,0,0-2.65,1,3.92,3.92,0,0,0-1,2.8,4,4,0,0,0,.92,2.86,3.54,3.54,0,0,0,2.7,1,8,8,0,0,0,1.89-.22V48H193.7V47Z"/><path class="cls-2" d="M206.28,51.87H205.2V47.5h-4.9v4.38h-1.08v-9.3h1.08v4h4.9v-4h1.08v9.3Z"/><path class="cls-2" d="M214.15,51.87H209v-9.3h5.18v1H210v3h3.85v1H210v3.42h4.1v1Z"/><path class="cls-2" d="M217.42,48v3.87h-1.08v-9.3h2.55a4,4,0,0,1,2.53.66,2.38,2.38,0,0,1,.82,2,2.47,2.47,0,0,1-1.87,2.49l2.52,4.18h-1.28L219.36,48h-1.94Zm0-.93h1.48a2.56,2.56,0,0,0,1.68-.45,1.69,1.69,0,0,0,.53-1.36,1.55,1.55,0,0,0-.54-1.33,3,3,0,0,0-1.75-.41h-1.41v3.56Z"/><path class="cls-2" d="M233.22,51.87H228v-9.3h5.18v1h-4.1v3H233v1h-3.85v3.42h4.1v1Z"/><path class="cls-2" d="M242.83,47.13a4.69,4.69,0,0,1-1.25,3.52,4.94,4.94,0,0,1-3.6,1.22h-2.58v-9.3h2.85A4.17,4.17,0,0,1,242.83,47.13Zm-1.14,0a3.74,3.74,0,0,0-.91-2.74,3.66,3.66,0,0,0-2.71-.92h-1.57v7.43h1.32a4,4,0,0,0,2.91-1A3.76,3.76,0,0,0,241.69,47.17Z"/><path class="cls-2" d="M252.05,42.57v6a3.28,3.28,0,0,1-1,2.5,3.68,3.68,0,0,1-2.64.91,3.52,3.52,0,0,1-2.6-.92,3.4,3.4,0,0,1-.92-2.52v-6H246v6.07a2.39,2.39,0,0,0,.64,1.79,2.57,2.57,0,0,0,1.87.62,2.47,2.47,0,0,0,1.81-.63,2.41,2.41,0,0,0,.64-1.8V42.57h1.08Z"/><path class="cls-2" d="M258.63,43.41a3,3,0,0,0-2.42,1,4.12,4.12,0,0,0-.89,2.8,4.2,4.2,0,0,0,.86,2.82,3,3,0,0,0,2.44,1,8.33,8.33,0,0,0,2.22-.35v0.95a6.84,6.84,0,0,1-2.38.36,4,4,0,0,1-3.17-1.25,5.13,5.13,0,0,1-1.12-3.54,5.59,5.59,0,0,1,.54-2.52A3.86,3.86,0,0,1,256.25,43a4.7,4.7,0,0,1,2.39-.59,5.76,5.76,0,0,1,2.56.53l-0.46.93A4.93,4.93,0,0,0,258.63,43.41Z"/><path class="cls-2" d="M268.84,51.87l-1.16-3H264l-1.14,3h-1.09l3.68-9.34h0.91L270,51.87h-1.12Zm-1.49-3.93-1.08-2.88q-0.21-.55-0.43-1.34a12,12,0,0,1-.4,1.34l-1.09,2.88h3Z"/><path class="cls-2" d="M274.23,51.87h-1.08V43.54H270.2v-1h7v1h-2.94v8.34Z"/><path class="cls-2" d="M278.7,51.87v-9.3h1.08v9.3H278.7Z"/><path class="cls-2" d="M290.53,47.21a5.12,5.12,0,0,1-1.13,3.51A4,4,0,0,1,286.27,52a4,4,0,0,1-3.17-1.26A5.16,5.16,0,0,1,282,47.2a5.1,5.1,0,0,1,1.12-3.52,4,4,0,0,1,3.18-1.25,4,4,0,0,1,3.13,1.27A5.11,5.11,0,0,1,290.53,47.21Zm-7.41,0a4.41,4.41,0,0,0,.8,2.87,3.29,3.29,0,0,0,4.67,0,4.48,4.48,0,0,0,.79-2.87,4.44,4.44,0,0,0-.79-2.85,2.81,2.81,0,0,0-2.32-1,2.87,2.87,0,0,0-2.35,1A4.37,4.37,0,0,0,283.12,47.21Z"/><path class="cls-2" d="M300,51.87h-1.23l-5.08-7.8h-0.05q0.1,1.37.1,2.52v5.28h-1v-9.3H294L299,50.35h0.05q0-.17-0.06-1.1t0-1.33V42.57h1v9.3Z"/><path class="cls-2" d="M1.56,77.77A5.52,5.52,0,0,1,0,77.59V76.08a7.27,7.27,0,0,0,1.39.16,1.65,1.65,0,0,0,1.86-1.86V63.73H5.53V74.31a3.24,3.24,0,0,1-1,2.57A4.36,4.36,0,0,1,1.56,77.77Z"/><path class="cls-2" d="M20,63.6v9a5.34,5.34,0,0,1-.66,2.69,4.4,4.4,0,0,1-1.91,1.78,6.63,6.63,0,0,1-3,.62,5.59,5.59,0,0,1-4-1.37A5,5,0,0,1,9,72.55v-9h2.28v8.79a3.51,3.51,0,0,0,.8,2.54,3.29,3.29,0,0,0,2.45.82q3.21,0,3.21-3.37V63.6H20Z"/><path class="cls-2" d="M23.58,77.49V63.6h2.27V75.54h5.88v1.95H23.58Z"/><path class="cls-2" d="M38,69.94l3.29-6.34h2.47L39.18,72.1v5.39H36.9V72.18L32.29,63.6h2.47Z"/><path class="cls-2" d="M56.28,77.49H54v-9q0-1.61.08-2.55-0.22.23-.54,0.5l-2.13,1.75-1.12-1.42,4.09-3.21h1.86V77.49Z"/><path class="cls-2" d="M65.54,68.81a4.76,4.76,0,0,1,3.33,1.11,3.89,3.89,0,0,1,1.23,3,4.43,4.43,0,0,1-1.39,3.47,5.72,5.72,0,0,1-4,1.25,7.48,7.48,0,0,1-3.66-.75v-2a6.71,6.71,0,0,0,1.77.67,8,8,0,0,0,1.85.24,3.45,3.45,0,0,0,2.3-.67,2.46,2.46,0,0,0,.79-2q0-2.49-3.17-2.49a8.39,8.39,0,0,0-1.1.09q-0.66.09-1.15,0.2l-1-.59L61.9,63.6h7.22v2H63.87L63.56,69l0.81-.13A7.67,7.67,0,0,1,65.54,68.81Z"/><path class="cls-2" d="M71.77,73.22v-1.9h4.88v1.9H71.77Z"/><path class="cls-2" d="M84.76,77.49H82.52v-9q0-1.61.08-2.55-0.22.23-.54,0.5l-2.13,1.75-1.12-1.42,4.09-3.21h1.86V77.49Z"/><path class="cls-2" d="M89.35,71.57q0-8.15,6.64-8.15a8.24,8.24,0,0,1,1.77.16v1.86a6,6,0,0,0-1.67-.21,4.38,4.38,0,0,0-3.35,1.2,5.81,5.81,0,0,0-1.22,3.84h0.11a3.06,3.06,0,0,1,1.25-1.19,4,4,0,0,1,1.9-.42,3.78,3.78,0,0,1,2.95,1.16A4.5,4.5,0,0,1,98.78,73a4.77,4.77,0,0,1-1.22,3.45,4.4,4.4,0,0,1-3.33,1.27A4.65,4.65,0,0,1,91.64,77a4.58,4.58,0,0,1-1.7-2.09A8.29,8.29,0,0,1,89.35,71.57Zm4.85,4.27A2.18,2.18,0,0,0,96,75.1,3.21,3.21,0,0,0,96.59,73,2.8,2.8,0,0,0,96,71.1a2.18,2.18,0,0,0-1.75-.68,2.9,2.9,0,0,0-1.33.31,2.45,2.45,0,0,0-1,.85,2,2,0,0,0-.35,1.1,3.52,3.52,0,0,0,.73,2.26A2.27,2.27,0,0,0,94.19,75.84Z"/><path class="cls-2" d="M103.48,75.45A31.94,31.94,0,0,1,101.81,80h-1.64a46.77,46.77,0,0,0,1-4.77h2.2Z"/><path class="cls-2" d="M120.09,77.49h-9.42V75.8l3.58-3.6a30.35,30.35,0,0,0,2.1-2.3,5.49,5.49,0,0,0,.76-1.28,3.45,3.45,0,0,0,.24-1.28,2,2,0,0,0-.57-1.48,2.17,2.17,0,0,0-1.56-.54,4.17,4.17,0,0,0-1.54.29A7.23,7.23,0,0,0,112,66.67l-1.21-1.47A7.79,7.79,0,0,1,113,63.81a6.59,6.59,0,0,1,2.33-.41,4.58,4.58,0,0,1,3.11,1,3.42,3.42,0,0,1,1.17,2.72,4.78,4.78,0,0,1-.34,1.79,7.28,7.28,0,0,1-1,1.74,23.78,23.78,0,0,1-2.32,2.43l-2.41,2.34v0.1h6.6v2Z"/><path class="cls-2" d="M131.2,70.54A9.88,9.88,0,0,1,130,75.92a4.4,4.4,0,0,1-7.07-.06,9.71,9.71,0,0,1-1.2-5.32,9.94,9.94,0,0,1,1.16-5.42,4.4,4.4,0,0,1,7.08.08A9.78,9.78,0,0,1,131.2,70.54Zm-7.17,0a10.11,10.11,0,0,0,.58,4.06,2,2,0,0,0,3.74,0,10,10,0,0,0,.59-4,10.08,10.08,0,0,0-.59-4,2,2,0,0,0-3.74,0A10.19,10.19,0,0,0,124,70.54Z"/><path class="cls-2" d="M139.45,77.49h-2.23v-9q0-1.61.08-2.55-0.22.23-.54,0.5l-2.13,1.75-1.12-1.42,4.09-3.21h1.86V77.49Z"/><path class="cls-2" d="M144,71.57q0-8.15,6.64-8.15a8.24,8.24,0,0,1,1.77.16v1.86a6,6,0,0,0-1.67-.21,4.38,4.38,0,0,0-3.35,1.2,5.81,5.81,0,0,0-1.22,3.84h0.11a3.06,3.06,0,0,1,1.25-1.19,4,4,0,0,1,1.9-.42,3.78,3.78,0,0,1,2.95,1.16A4.5,4.5,0,0,1,153.47,73a4.77,4.77,0,0,1-1.22,3.45,4.4,4.4,0,0,1-3.33,1.27,4.65,4.65,0,0,1-2.59-.72,4.58,4.58,0,0,1-1.7-2.09A8.29,8.29,0,0,1,144,71.57Zm4.85,4.27a2.18,2.18,0,0,0,1.77-.74,3.21,3.21,0,0,0,.62-2.12,2.8,2.8,0,0,0-.58-1.88,2.18,2.18,0,0,0-1.75-.68,2.9,2.9,0,0,0-1.33.31,2.45,2.45,0,0,0-1,.85,2,2,0,0,0-.35,1.1,3.52,3.52,0,0,0,.73,2.26A2.27,2.27,0,0,0,148.88,75.84Z"/><path class="cls-2" d="M160,73.22v-1.9h4.88v1.9H160Z"/><path class="cls-2" d="M180.47,73.72a3.5,3.5,0,0,1-1.34,2.91,5.83,5.83,0,0,1-3.7,1.05,8.82,8.82,0,0,1-3.86-.73V74.8a10.5,10.5,0,0,0,2,.7,8.57,8.57,0,0,0,2,.26,3.17,3.17,0,0,0,2-.51,1.67,1.67,0,0,0,.64-1.38,1.73,1.73,0,0,0-.59-1.32,8.87,8.87,0,0,0-2.43-1.28,6.44,6.44,0,0,1-2.68-1.76,3.72,3.72,0,0,1-.78-2.38A3.33,3.33,0,0,1,173,64.4a5.12,5.12,0,0,1,3.32-1,9.74,9.74,0,0,1,4,.87l-0.72,1.85a8.68,8.68,0,0,0-3.31-.78,2.54,2.54,0,0,0-1.67.48,1.58,1.58,0,0,0-.57,1.27,1.79,1.79,0,0,0,.23.93,2.33,2.33,0,0,0,.75.73,12.7,12.7,0,0,0,1.88.9,10.3,10.3,0,0,1,2.24,1.19,3.49,3.49,0,0,1,1,1.24A3.74,3.74,0,0,1,180.47,73.72Z"/><path class="cls-2" d="M191.78,77.49l-1.39-3.86h-5.31l-1.36,3.86h-2.39l5.2-14H189l5.2,14h-2.41Zm-2-5.82-1.3-3.78q-0.14-.38-0.39-1.2t-0.35-1.2a21.3,21.3,0,0,1-.75,2.56l-1.25,3.62h4Z"/><path class="cls-2" d="M198.3,71.94v5.55H196V63.6H200a6.45,6.45,0,0,1,4,1,3.62,3.62,0,0,1,1.29,3,3.8,3.8,0,0,1-2.7,3.7l3.92,6.15h-2.58l-3.33-5.55H198.3Zm0-1.88h1.58a3.6,3.6,0,0,0,2.3-.59,2.14,2.14,0,0,0,.71-1.75,1.88,1.88,0,0,0-.77-1.69,4.22,4.22,0,0,0-2.32-.51h-1.5v4.54Z"/><path class="cls-2" d="M217.09,77.49l-1.39-3.86h-5.31L209,77.49h-2.39l5.2-14h2.47l5.2,14h-2.41Zm-2-5.82-1.3-3.78q-0.14-.38-0.39-1.2t-0.35-1.2a21.3,21.3,0,0,1-.75,2.56l-1.25,3.62h4Z"/><path class="cls-2" d="M229.35,73.72A3.5,3.5,0,0,1,228,76.63a5.83,5.83,0,0,1-3.7,1.05,8.82,8.82,0,0,1-3.86-.73V74.8a10.5,10.5,0,0,0,2,.7,8.57,8.57,0,0,0,2,.26,3.17,3.17,0,0,0,2-.51,1.67,1.67,0,0,0,.64-1.38,1.73,1.73,0,0,0-.59-1.32,8.87,8.87,0,0,0-2.43-1.28,6.44,6.44,0,0,1-2.68-1.76,3.72,3.72,0,0,1-.78-2.38,3.33,3.33,0,0,1,1.24-2.74,5.12,5.12,0,0,1,3.32-1,9.74,9.74,0,0,1,4,.87l-0.72,1.85a8.68,8.68,0,0,0-3.31-.78,2.54,2.54,0,0,0-1.67.48,1.58,1.58,0,0,0-.57,1.27,1.79,1.79,0,0,0,.23.93,2.33,2.33,0,0,0,.75.73,12.7,12.7,0,0,0,1.88.9A10.3,10.3,0,0,1,228,70.84a3.49,3.49,0,0,1,1,1.24A3.74,3.74,0,0,1,229.35,73.72Z"/><path class="cls-2" d="M244.37,70.53a7.6,7.6,0,0,1-1.7,5.27,7.13,7.13,0,0,1-9.64,0,7.65,7.65,0,0,1-1.69-5.31,7.53,7.53,0,0,1,1.7-5.28,6.25,6.25,0,0,1,4.84-1.84,6.12,6.12,0,0,1,4.79,1.87A7.59,7.59,0,0,1,244.37,70.53Zm-10.61,0a6.23,6.23,0,0,0,1,3.89,4.21,4.21,0,0,0,6.12,0,6.24,6.24,0,0,0,1-3.91,6.26,6.26,0,0,0-1-3.88,3.61,3.61,0,0,0-3-1.32,3.69,3.69,0,0,0-3.08,1.32A6.17,6.17,0,0,0,233.76,70.53Z"/><path class="cls-2" d="M252.15,77.49h-2.27V65.55h-4.09V63.6h10.44v1.95h-4.09V77.49Z"/><path class="cls-2" d="M267,77.49l-1.39-3.86h-5.31l-1.36,3.86h-2.39l5.2-14h2.47l5.2,14H267Zm-2-5.82-1.3-3.78q-0.14-.38-0.39-1.2T263,65.5a21.3,21.3,0,0,1-.75,2.56L261,71.68h4Z"/><path class="cls-2" d="M273.32,75.45A31.94,31.94,0,0,1,271.64,80H270a46.77,46.77,0,0,0,1-4.77h2.2Z"/><path class="cls-2" d="M283.74,77.49h-2.25V63.6h7.84v1.92h-5.59v4.34H289v1.93h-5.24v5.7Z"/><path class="cls-2" d="M291.85,77.49V63.6h2.27V75.54H300v1.95h-8.15Z"/></svg>